<?xml version="1.0" encoding="UTF-8"?>
<svg xmlns="http://www.w3.org/2000/svg" width="248" height="207" viewBox="0 0 248 207" fill="none">
  <path fill-rule="evenodd" clip-rule="evenodd" d="M186.963 32.3614C175.252 28.5786 162.576 26.7996 148.982 26.7996C147.733 26.7996 146.494 26.8141 145.264 26.8431H88.2559C86.9334 26.8287 85.5382 26.8375 84.0822 26.8467C70.002 26.9355 50.2409 27.0602 35.6614 6.5925C19.1009 -12.1879 -20.4076 11.8225 13.046 45.0456C39.2176 67.152 46.9673 70.603 80.138 70.5416V70.5422H151.716C160.828 70.7983 168.813 72.362 175.67 75.233C183.199 78.3853 189.159 83.5341 193.551 90.6794C197.943 97.6145 200.139 106.336 200.139 116.844C200.139 132.395 195.538 144.059 186.336 151.834C177.134 159.4 164.69 163.183 149.005 163.183C133.111 163.183 120.563 159.505 111.361 152.15C102.368 144.584 97.8718 132.921 97.8718 117.159C97.8718 108.47 99.2024 101.026 101.864 94.8249C103.447 91.1351 101.007 86.2324 97.0087 86.2324H58.6548C56.5896 86.2324 54.7505 87.575 54.2096 89.5778C51.9475 97.9528 50.8165 107.041 50.8165 116.844C50.8165 131.765 53.4307 145.109 58.659 156.878C63.8874 168.437 70.998 177.894 79.9908 185.249C88.9836 192.394 99.3358 197.858 111.047 201.641C122.759 205.214 135.412 207 149.005 207C162.599 207 175.252 205.214 186.963 201.641C198.675 197.858 209.027 192.394 218.02 185.249C227.013 178.104 234.123 168.752 239.352 157.193C244.58 145.425 247.194 131.975 247.194 116.844C247.194 101.923 244.58 88.6829 239.352 77.1244C234.123 65.3558 227.013 55.8988 218.02 48.7536C209.027 41.6083 198.675 36.1442 186.963 32.3614Z" fill="url(#paint0_linear_2833_2229)"></path>
  <defs>
    <linearGradient id="paint0_linear_2833_2229" x1="24.5" y1="6.6307e-06" x2="229" y2="207" gradientUnits="userSpaceOnUse">
      <stop stop-color="#4D35FA"></stop>
      <stop offset="1" stop-color="#AF35FA"></stop>
    </linearGradient>
  </defs>
</svg>
